# xmcd
#
# Track frame offsets: 
#        150
#        26502
#        43312
#        65671
#        83820
#        101007
#        119385
#        140165
#        164996
#        182476
#        198985
#        220219
#        249701
#
# Disc length: 3560 seconds
#
# Revision: 3
# Processed by: cddbd v1.5.2PL0 Copyright (c) Steve Scherf et al.
# Submitted via: ExactAudioCopy v0.99pb5
#
DISCID=c90de60d
DTITLE=Toots Thielemans - Bluesette
DYEAR=1900
DGENRE=Jazz
TTITLE0=Killer Joe
TTITLE1=The shadow of your smile
TTITLE2=Jane's theme
TTITLE3=Nobody does it better
TTITLE4=Here's that rainy day
TTITLE5=My ship
TTITLE6=I won't last a day without you
TTITLE7=Bluesette
TTITLE8=Quiet evenings
TTITLE9=Days of wine and roses
TTITLE10=Maybe september
TTITLE11=That misty red beast
TTITLE12=Rosa turbinata
EXTD=ID3G: 8
EXTT0=
EXTT1=
EXTT2=
EXTT3=
EXTT4=
EXTT5=
EXTT6=
EXTT7=
EXTT8=
EXTT9=
EXTT10=
EXTT11=
EXTT12=
PLAYORDER=
